<?xml version="1.0" encoding="utf-8"?>
<!-- Generator: Moho 13.5.5 build 20220524 -->
<!DOCTYPE svg PUBLIC "-//W3C//DTD SVG 1.1//EN" "http://www.w3.org/Graphics/SVG/1.1/DTD/svg11.dtd">
<svg version="1.1" id="Frame_1" xmlns="http://www.w3.org/2000/svg" xmlns:xlink="http://www.w3.org/1999/xlink" width="64px" height="64px">
<path id="S1" fill="#000000" fill-rule="evenodd" stroke="none" d="M 25.237 3.859 C 25.240 3.859 40.942 2.158 49.009 9.597 C 55.318 15.414 55.464 27.596 55.465 27.598 C 55.464 27.598 50.534 27.699 50.534 27.699 C 50.533 27.698 50.567 22.339 45.894 19.030 C 43.201 17.124 39.071 17.544 39.070 17.544 C 39.070 17.548 39.070 61.096 39.070 61.100 C 39.069 61.100 25.239 61.100 25.237 61.100 C 25.237 61.095 25.237 3.864 25.237 3.859 Z"/>
<path id="S1_2" fill="#000000" fill-rule="evenodd" stroke="none" d="M 34.049 27.391 C 34.048 27.391 24.747 26.335 19.942 30.719 C 16.256 34.082 16.112 41.157 16.111 41.158 C 16.112 41.158 19.037 41.217 19.038 41.217 C 19.038 41.216 19.055 38.101 21.791 36.190 C 23.395 35.069 25.840 35.328 25.840 35.328 C 25.840 35.330 25.840 60.585 25.840 60.588 C 25.841 60.588 34.048 60.588 34.049 60.588 C 34.049 60.585 34.049 27.394 34.049 27.391 Z"/>
</svg>
